{"title":"C.S.I.-Cum Swappers Incorporated","uid":6941604,"size":957705942,"categoryP":"porn","categoryS":"movies","magnet":"?xt=urn:btih:2e7748a88a785abec6e7fb2f293ac38ef5e80660&amp;dn=C.S.I.-Cum+Swappers+Incorporated&amp;tr=udp%3A%2F%2Ftracker.openbittorrent.com%3A80&amp;tr=udp%3A%2F%2Fopen.demonii.com%3A1337&amp;tr=udp%3A%2F%2Ftracker.coppersurfer.tk%3A6969&amp;tr=udp%3A%2F%2Fexodus.desync.com%3A6969","seeders":0,"leechers":1,"uploader":"tigris1968","files":87,"time":1326061064,"description":"C.S.I.-Cum Swappers Incorporated\n &lt;a href=&quot;\nhttp://bayimg.com/LAlKLaAdm&quot; rel=&quot;nofollow&quot; target=&quot;_NEW&quot;&gt;\nhttp://bayimg.com/LAlKLaAdm&lt;/a&gt;\n &lt;a href=&quot;\nhttp://bayimg.com/LalkMAaDm&quot; rel=&quot;nofollow&quot; target=&quot;_NEW&quot;&gt;\nhttp://bayimg.com/LalkMAaDm&lt;/a&gt;\n &lt;a href=&quot;\nhttp://bayimg.com/LalKNAAdM&quot; rel=&quot;nofollow&quot; target=&quot;_NEW&quot;&gt;\nhttp://bayimg.com/LalKNAAdM&lt;/a&gt;\n\nGeneral\nComplete name                    : C:\\Downloads\\C.S.I.-Cum Swappers Incorporated\\DVD\\C.S.I.-Cum Swappers Incorporated.avi\nFormat                           : AVI\nFormat/Info                      : Audio Video Interleave\nFile size                        : 903 MiB\nDuration                         : 1h 34mn\nOverall bit rate                 : 1 340 Kbps\nWriting application              : MEncoder SVN-r30881(20100311-gcc4.3.3)\nWriting library                  : MPlayer\n\nVideo\nID                               : 0\nFormat                           : MPEG-4 Visual\nFormat profile                   : Advanced Simple@L5\nFormat settings, BVOP            : 2\nFormat settings, QPel            : No\nFormat settings, GMC             : No warppoints\nFormat settings, Matrix          : Default (H.263)\nCodec ID                         : XVID\nCodec ID/Hint                    : XviD\nDuration                         : 1h 34mn\nBit rate                         : 1 200 Kbps\nWidth                            : 720 pixels\nHeight                           : 480 pixels\nDisplay aspect ratio             : 3:2\nFrame rate                       : 25.000 fps\nStandard                         : NTSC\nColor space                      : YUV\nChroma subsampling               : 4:2:0\nBit depth                        : 8 bits\nScan type                        : Progressive\nCompression mode                 : Lossy\nBits/(Pixel*Frame)               : 0.139\nStream size                      : 808 MiB (90%)\nWriting library                  : XviD 1.2.1 (UTC 2008-12-04)\n\nAudio\nID                               : 1\nFormat                           : MPEG Audio\nFormat version                   : Version 1\nFormat profile                   : Layer 3\nMode                             : Joint stereo\nMode extension                   : MS Stereo\nCodec ID                         : 55\nCodec ID/Hint                    : MP3\nDuration                         : 1h 34mn\nBit rate mode                    : Constant\nBit rate                         : 128 Kbps\nChannel(s)                       : 2 channels\nSampling rate                    : 44.1 KHz\nCompression mode                 : Lossy\nDelay relative to video          : 40ms\nStream size                      : 86.2 MiB (10%)\nAlignment                        : Aligned on interleaves\nInterleave, duration             : 26 ms (0.65 video frame)\nInterleave, preload duration     : 522 ms\nWriting library                  : LAME3.98\n\n","torrent":{"xt":"urn:btih:2e7748a88a785abec6e7fb2f293ac38ef5e80660","amp;dn":"C.S.I.-Cum+Swappers+Incorporated","amp;tr":["udp%3A%2F%2Ftracker.openbittorrent.com%3A80","udp%3A%2F%2Fopen.demonii.com%3A1337","udp%3A%2F%2Ftracker.coppersurfer.tk%3A6969","udp%3A%2F%2Fexodus.desync.com%3A6969"],"infoHash":"2e7748a88a785abec6e7fb2f293ac38ef5e80660","infoHashBuffer":{"type":"Buffer","data":[46,119,72,168,138,120,90,190,198,231,251,47,41,58,195,142,245,232,6,96]},"announce":[],"urlList":[]}}